<?xml version="1.0" encoding="utf-8"?>
<!-- Generator: Adobe Illustrator 16.0.0, SVG Export Plug-In . SVG Version: 6.00 Build 0)  -->
<!DOCTYPE svg PUBLIC "-//W3C//DTD SVG 1.1//EN" "http://www.w3.org/Graphics/SVG/1.1/DTD/svg11.dtd" [
	<!ENTITY ns_flows "http://ns.adobe.com/Flows/1.0/">
	<!ENTITY ns_extend "http://ns.adobe.com/Extensibility/1.0/">
	<!ENTITY ns_ai "http://ns.adobe.com/AdobeIllustrator/10.0/">
	<!ENTITY ns_graphs "http://ns.adobe.com/Graphs/1.0/">
]>
<svg version="1.1" id="Layer_1" xmlns:x="&ns_extend;" xmlns:i="&ns_ai;" xmlns:graph="&ns_graphs;"
	 xmlns="http://www.w3.org/2000/svg" xmlns:xlink="http://www.w3.org/1999/xlink" xmlns:a="http://ns.adobe.com/AdobeSVGViewerExtensions/3.0/"
	 x="0px" y="0px" width="864px" height="864px" viewBox="0 0 864 864" enable-background="new 0 0 864 864" xml:space="preserve">
<path fill-rule="evenodd" clip-rule="evenodd" d="M492.817,578.092c-4.477,0.53-8.563,1.015-12.65,1.5
	c2.04,4.217,3.229,9.218,6.265,12.517c14.6,15.861,29.74,31.223,44.59,46.854c3.975,4.185,7.601,8.697,12.066,12.519
	c-4.272-19.914-16.743-34.002-32.096-46.522c3.867,1.011,7.691,2.303,11.62,2.922c2.218,0.35,5.971,0.335,6.614-0.839
	c1.046-1.912,0.855-5.256-0.133-7.38c-2.746-5.902-6.173-11.487-10.099-18.587c13.925,8.94,23.769,19.652,30.503,33.156
	c10.969,21.99,13.138,45.354,10.71,69.484c-3.2,31.823-13.278,61.541-26.991,91.578c-0.994-2.579-1.404-4.062-2.12-5.38
	c-0.668-1.23-1.66-2.286-3.29-4.461c-14.566,31.92-34.272,56.839-73.643,60.511c8.426-7.129,15.629-12.792,22.337-18.993
	c13.083-12.09,19.407-27.516,20.013-45.066c0.128-3.709-2.981-7.531-4.601-11.302c-3.145,2.394-7.443,4.144-9.199,7.308
	c-3.89,7.012-7.258,14.509-9.507,22.197c-12.131,41.457-55.844,56.807-86.019,47.987c3.238-0.901,6.463-1.854,9.717-2.694
	c14.967-3.86,30.163-7.253,41.896-18.39c3.425-3.253,8.89-6.602,5.517-12.108c-3.365-5.496-9.381-3.452-14.021-1.405
	c-4.4,1.94-8.386,4.972-12.274,7.896c-34.284,25.779-84.228,25.021-111.431-17.625c-0.461-0.724-0.694-1.593-1.752-4.091
	c13.588,10.396,26.615,18.329,42.179,19.67c9.172,0.791,18.508-0.036,27.749-0.549c2.264-0.125,5.017-1.354,6.504-3.01
	c1.76-1.962,3.237-4.952,3.191-7.466c-0.027-1.459-3.153-3.839-5.118-4.108c-7.015-0.963-14.166-0.903-21.197-1.774
	c-12.837-1.59-25.753-2.959-38.399-5.564c-11.411-2.354-19.107-10.17-24.846-20.245c-13.791-24.213-14.048-49.544-6.488-75.45
	c2.838-9.725,6.713-19.148,9.893-28.083c-1.099,15.699-3.146,31.731-3.089,47.758c0.061,16.891,6.391,32.078,17.844,44.791
	c1.587,1.761,3.631,3.598,5.798,4.207c2.074,0.583,5.372,0.399,6.674-0.904c1.207-1.209,0.821-4.392,0.5-6.613
	c-0.23-1.587-1.328-3.162-2.354-4.502c-20.751-27.104-22.442-57.165-13.545-88.721c2.696-9.565,6.26-18.888,9.428-28.319
	c0.987-0.461,1.974-0.923,2.961-1.384c0.681,1.575,1.246,3.215,2.062,4.717c6.982,12.851,18.838,15.78,32.208,16.162
	c15.976,0.459,31.077,3.927,43.916,14.302c13.407,10.832,22.903,24.234,26.172,41.313c2.938,15.341-3.023,27.51-15.559,36.251
	c-13.626,9.501-28.231,9.465-42.373,1.563c-16.437-9.184-23.528-24.687-19.349-39.757c2.267-8.174,8.139-12.733,16.619-12.904
	c9.56-0.191,18.244,5.072,20.452,12.569c0.437,1.482,0.219,3.158,0.311,4.873c-4.825-2.688-8.888-5.903-13.502-7.306
	c-7.621-2.316-12.76,2.142-11.979,10.011c0.992,9.996,4.771,18.532,14.763,22.827c7.99,3.434,15.562,2.279,22.024-3.296
	c8.043-6.939,11.289-15.766,8.603-26.397c-6.307-24.969-40.788-40.307-59.748-25.384c-24.623,19.381-29.926,49.207-4.685,72.188
	c24.487,22.297,54.372,29.645,86.863,23.638c31.985-5.912,51.682-29.633,55.277-64.717c0.224-2.185,0.382-4.375,0.685-7.898
	c16.283,15.784,25.163,34.31,29.837,55.384c5.733-7.816,7.138-33.452,3.233-50.719c-3.879-17.165-12.188-32.261-22.578-47.809
	c18.781,10.525,31.227,24.656,36.619,44.863c0.926-0.472,1.854-0.943,2.78-1.416c-0.896-5.072-1.467-10.229-2.746-15.204
	c-4.321-16.804-13.357-31.183-25.213-43.41c-14.818-15.284-30.933-29.308-45.928-44.429c-5.045-5.087-9.177-11.505-12.162-18.03
	c-1.508-3.295-0.971-9.509,1.29-11.977c2.181-2.38,8.147-3.017,11.792-2.017C474.733,560.841,484.174,569.222,492.817,578.092z"/>
<path fill-rule="evenodd" clip-rule="evenodd" d="M627.971,535.402c-4.724-9.588-9.09-19.373-14.247-28.723
	c-10.358-18.783-25.874-31.343-46.142-38.829c-14.054-5.19-27.435-12.208-41.561-18.61c1.815,40.784,26.802,66.438,60.386,86.594
	c-9.396,2.372-26.862-1.928-37.823-8.606c-20.365-12.409-31.487-31.81-39.902-53.043c-5.585-14.094-10.23-28.564-15.155-42.914
	c-5.407-15.757-16.77-25.998-29.925-26.714c-18.288-0.996-32.791,13.6-34.418,34.632c-1.204,15.56,2.358,30.176,8.717,44.248
	c0.901,1.995,1.654,4.059,2.438,6.105c0.049,0.125-0.243,0.379-0.769,1.143c-13.125-8.069-23.154-19.142-27.637-33.655
	c-4.075-13.192-5.386-27.224-8.243-40.817c-0.808-3.847-1.921-8.151-4.329-11.056c-15.248-18.399-24.265-38.479-18.929-62.977
	c0.143-0.656,0.463-1.272,1.153-3.119c4.414,6.344,8.105,12.215,12.363,17.642c6.492,8.272,13.347,16.26,20.122,24.307
	c1.091,1.296,2.388,2.709,3.893,3.309c4.128,1.648,9.36,5.012,12.366,3.675c2.78-1.237,4.415-7.647,4.526-11.834
	c0.475-17.835-1.536-35.3-11.732-50.729c-5.207-7.879-14.958-12.097-23.712-9.405c-30.197,9.287-51.161,28.737-63.493,59.051
	c32.085,7.458,52.691,25.474,56.184,61.708c-4.386-3.91-7.467-6.653-10.544-9.401c-10.175-9.085-21.409-16.428-34.748-19.856
	c-22.042-5.663-41.591,2.418-53.678,21.834c-11.472,18.43-15.577,38.997-17.046,60.209c-0.591,8.532-0.097,17.14-1.793,25.954
	c-1.351-8.179-2.988-16.322-4.007-24.542c-6.246-50.389,10.812-93.287,41.81-132.071c18.988-23.758,42.799-40.498,69.959-53.453
	c11.431-5.453,22.256-12.402,32.716-19.603c10.195-7.017,16.181-17.532,20.023-29.209c1.14-3.462,2.156-6.965,5.059-10.647
	c1.283,7.464,3.549,14.917,3.634,22.396c0.147,12.961-0.166,26.056-1.849,38.888c-5.922,45.174,14.26,70.017,57.348,84.32
	c14.166,4.702,28.812,7.937,43.136,12.186c31.285,9.278,52.987,29.446,66.487,58.92
	C619.197,485.833,624.837,510.273,627.971,535.402z M570,444.096c-8.295-14.669-24.99-24.252-34.113-19.98
	C542.963,437.423,555.556,441.138,570,444.096z"/>
<path fill-rule="evenodd" clip-rule="evenodd" d="M374.549,252.086c3.608,1.818,8.709,5.592,9.749,4.689
	c3.38-2.935,6.435-7.311,7.442-11.638c1.24-5.325,0.296-11.159,0.296-16.737c1.067-0.061,1.698-0.3,1.977-0.083
	c12.861,9.961,18.105,3.354,20.708-8.662c0.722-3.334,1-6.767,1.432-10.16c0.401-3.147,0.736-6.302,2.687-9.88
	c1.711,6.014,3.695,11.966,5.077,18.056c2.854,12.572,3.923,25.18-0.448,37.719c-4.357,12.497-13.356,19.517-25.977,22.377
	c-7.633,1.731-15.827,2.269-22.749,5.517c-7.73,3.628-15.002,9.01-21.116,15.011c-3.525,3.459-5.932,4.352-10.455,3.46
	c-15.058-2.969-30.197-3.869-45,1.384c-18.672,6.626-30.856,20.366-39.403,37.544c-4.46,8.966-8.33,18.292-11.621,27.749
	c-1.802,5.178-4.485,7.14-9.604,6.454c-4.366-0.586-8.872-0.668-13.072-1.844c-9.425-2.638-18.521-6.922-28.086-8.46
	c-9.15-1.471-18.723-0.317-29.556-0.317c13.03-10.317,25.056-20.162,37.423-29.558c20.634-15.677,43.867-27.929,61.794-47.175
	c10.013-10.75,20.441-21.123,30.22-32.078c9.609-10.765,9.938-26.889,1.566-40.487c-7.477-12.144-20.736-17.435-34.885-13.941
	c-0.926,0.229-1.893,0.294-2.808,0.431c-7.519-25.046,19.7-90.744,53.963-127.985c-1.665,4.521-3.645,8.955-4.939,13.58
	c-6,21.417-12.075,42.822-17.506,64.386c-1.402,5.568-1.294,11.782-0.632,17.556c2.058,17.945,7.322,28.933,33.197,31.465
	c-1.88,5.319-4.035,10.422-5.447,15.723c-1.123,4.212-1.954,8.697-1.733,13.001c0.14,2.735,1.915,6.997,3.899,7.632
	c2.67,0.856,7.254-0.125,9.218-2.104c3.5-3.528,6.149-8.164,8.277-12.744c6.43-13.838,15.461-24.951,30.08-30.6
	c2.593-1.002,5.423-1.392,9.85-2.486c-7.532,13.337-10.628,25.951-9.737,39.524c0.093,1.409-2.239,3.217-3.763,4.447
	c-4.91,3.963-10.826,7.052-14.678,11.829c-2.73,3.384-3.894,9-3.719,13.542c0.287,7.526,6.839,10.999,13.737,7.777
	c3.201-1.495,6.015-4.084,8.573-6.613C371.183,257.015,373.018,254.067,374.549,252.086z"/>
<path fill-rule="evenodd" clip-rule="evenodd" d="M512.566,562.845c-12.904-6.823-25.48-14.539-38.93-20.167
	c-7.604-3.184-16.65-4.005-25.037-3.961c-10.09,0.053-16.412,7.659-16.841,17.801c-0.685,16.223,6.961,29.271,16.328,41.502
	c7.596,9.919,15.839,19.347,23.351,29.326c10.267,13.643,15.847,29.086,15.434,46.687c-2.403-4.853-4.848-9.686-7.202-14.562
	c-10.57-21.896-26.539-39.212-45.529-54.032c-14.84-11.58-28.074-24.404-34.288-43.009c-5.903-17.676-1.037-29.464,16.262-36.615
	c5.6-2.314,11.621-3.607,18.703-5.746c-12.829-11.207-26.175-17.51-42.941-15.158c-16.095,2.259-27.839,12.249-40.521,23.106
	c-1.104-13.512,2.951-24.04,12.034-31.212c8.631-6.815,18.981-11.453,28.418-16.956c-16.619-20.471-51.925-15.051-64.484,11.055
	c-5.573,11.582-8.151,24.012-5.32,36.438c1.386,6.083,5.613,12.826,10.595,16.512c10.179,7.528,21.82,13.059,32.71,19.656
	c13.653,8.272,24.925,19.242,34.615,32.167c-8.123-3.775-16.144-7.79-24.39-11.273c-15.789-6.673-31.604-13.305-47.589-19.486
	c-39.263-15.185-47.621-64.817-22.043-95.73c24.032-29.044,66.009-34.124,98.457-2.96c4.391,4.218,8.659,8.771,12.021,13.811
	c8.418,12.619,22.243,18.139,33.846,26.476C473.323,523.105,495.365,540.713,512.566,562.845z"/>
<path fill-rule="evenodd" clip-rule="evenodd" d="M700.389,319.101c-17.016-1.308-32.83-3.207-48.682-3.591
	c-27.233-0.661-52.844,6.339-77.107,18.578c-14.808,7.469-29.722,14.723-44.281,21.922c8.702,1.836,18.276,3.655,27.749,5.902
	c16.316,3.872,31.905,9.596,45.543,19.671c14.673,10.841,23.333,25.178,25.177,42.161c-13.798-9.156-27.363-19.617-42.231-27.677
	c-21.119-11.448-44.997-12.684-68.421-14.93c-5.364-0.515-10.745-1.057-16.048-1.989c-28.664-5.035-46.96-24.04-49.195-54.042
	c-1.208-16.209,0.808-32.708,1.985-49.032c1.261-17.488,2.414-34.83-6.653-50.886c-2.021-3.579-4.331-6.997-6.597-10.631
	c24.865-0.091,43.737,14.259,44.805,34.971c0.8,15.517-1.429,31.181-2.075,46.789c-0.241,5.831-0.547,11.813,0.433,17.51
	c2.966,17.239,15.541,25.542,32.25,20.111c17.425-5.664,34.323-12.967,51.392-19.705c42.354-16.719,84.448-17.864,126.243,1.873
	C696.371,316.908,698.006,317.848,700.389,319.101z"/>
<path fill-rule="evenodd" clip-rule="evenodd" d="M391.957,187.146c9.489-12.31,12.671-26.88,15.435-41.508
	c3.931-20.81,19.446-31.686,35.713-41.513c30.438-18.388,60.77-15.113,90.381,2.344c17.174,10.125,31.111,24.049,43.424,40.032
	c-9.356-5.505-18.801-10.872-28.058-16.541c-42.955-26.304-100.651-8.383-125.837,29.229
	C415.163,170.915,405.863,181.546,391.957,187.146z"/>
<path fill-rule="evenodd" clip-rule="evenodd" d="M328.69,220.334c1.232-4.618,2.255-9.303,3.744-13.836
	c2.429-7.395,1.372-13.671-3.96-19.693c-5.014-5.664-9.605-11.816-13.616-18.234c-10.105-16.168-8.641-30.268,4.29-44.17
	c4.495-4.833,9.408-9.28,14.2-13.831c19.417-18.437,38.05-37.418,45.173-66.705c4.284,12.003,4.677,22.304-0.171,31.138
	c-7.011,12.773-14.932,25.346-24.306,36.45c-12.896,15.276-16.235,30.764-8.948,49.579
	C354.062,184.179,344.614,203.291,328.69,220.334z"/>
<path fill-rule="evenodd" clip-rule="evenodd" d="M443.352,41.355c7.729,28.674-0.723,51.509-21.769,62.837
	c-20.892,11.245-36.185,27.167-43.211,50.404c-3.115,10.301-7.238,20.254-17.913,29.154c4.764-15.816,0.046-28.999-2.026-42.526
	c-2.493-16.274,7.083-27.571,18.729-36.722c8.809-6.92,18.681-12.552,28.354-18.293c15.931-9.457,27.167-22.9,34.96-39.483
	C441.271,45.033,442.238,43.422,443.352,41.355z"/>
<path fill-rule="evenodd" clip-rule="evenodd" d="M560.434,199.105c-3.39-4.042-6.485-8.383-10.218-12.079
	c-21.692-21.479-37.828-23.936-65.396-10.564c-13.836,6.712-27.512,14.264-43.667,13.298c-5.983-0.357-11.933-1.29-17.904-3.293
	c6.077-1.973,12.939-2.757,18.075-6.152c12.555-8.3,24.593-17.458,36.309-26.927c11.894-9.615,24.684-15.567,40.327-14.152
	c13.129,1.188,22.945,7.775,30.356,18.27c8.45,11.967,12.894,25.37,14.259,39.796C561.861,197.902,561.147,198.503,560.434,199.105z
	"/>
<path fill-rule="evenodd" clip-rule="evenodd" d="M540.188,267.345c-15.566-3.342-29.383-12.095-34.937-26.66
	c-8.733-22.902-26.185-32.838-47.029-40.141c-2.225-0.779-4.302-1.979-8.054-3.736c16.47-4.354,31.363-7.26,46.653-3.593
	c9.975,2.394,15.253,10.229,18.964,19.035c3.32,7.883,5.652,16.192,9.143,23.99C529.58,246.631,534.93,256.71,540.188,267.345z"/>
</svg>
