<?xml version="1.0" encoding="UTF-8" standalone="no"?>
<!-- Created with Inkscape (http://www.inkscape.org/) -->

<svg
   xmlns:dc="http://purl.org/dc/elements/1.1/"
   xmlns:cc="http://creativecommons.org/ns#"
   xmlns:rdf="http://www.w3.org/1999/02/22-rdf-syntax-ns#"
   xmlns:svg="http://www.w3.org/2000/svg"
   xmlns="http://www.w3.org/2000/svg"
   xmlns:sodipodi="http://sodipodi.sourceforge.net/DTD/sodipodi-0.dtd"
   xmlns:inkscape="http://www.inkscape.org/namespaces/inkscape"
   width="210mm"
   height="297mm"
   viewBox="0 0 744.09448819 1052.3622047"
   id="svg2"
   version="1.1"
   inkscape:version="0.91 r13725"
   sodipodi:docname="logo.svg"
   inkscape:export-filename="/Users/miloyip/GitHub/miloyip.github.io/assets/img/logo.png"
   inkscape:export-xdpi="115.14"
   inkscape:export-ydpi="115.14">
  <defs
     id="defs4">
    <filter
       inkscape:label="Blur Double"
       inkscape:menu="Blurs"
       inkscape:menu-tooltip="Overlays two copies with different blur amounts and modifiable blend and composite"
       style="color-interpolation-filters:sRGB;"
       id="filter3391">
      <feGaussianBlur
         stdDeviation="5"
         result="fbSourceGraphic"
         id="feGaussianBlur3393" />
      <feGaussianBlur
         stdDeviation="0.01"
         in="SourceGraphic"
         result="result1"
         id="feGaussianBlur3395" />
      <feComposite
         in2="result1"
         operator="arithmetic"
         in="fbSourceGraphic"
         k2="0.5"
         k3="0.5"
         result="result2"
         id="feComposite3397" />
      <feBlend
         in2="fbSourceGraphic"
         mode="normal"
         result="result3"
         id="feBlend3399" />
    </filter>
    <filter
       style="color-interpolation-filters:sRGB;"
       inkscape:label="Drop Shadow"
       id="filter3420">
      <feFlood
         flood-opacity="0.5"
         flood-color="rgb(0,0,0)"
         result="flood"
         id="feFlood3422" />
      <feComposite
         in="flood"
         in2="SourceGraphic"
         operator="in"
         result="composite1"
         id="feComposite3424" />
      <feGaussianBlur
         in="composite1"
         stdDeviation="2"
         result="blur"
         id="feGaussianBlur3426" />
      <feOffset
         dx="2"
         dy="2"
         result="offset"
         id="feOffset3428" />
      <feComposite
         in="SourceGraphic"
         in2="offset"
         operator="over"
         result="composite2"
         id="feComposite3430" />
    </filter>
    <filter
       style="color-interpolation-filters:sRGB"
       inkscape:label="Drop Shadow"
       id="filter3420-6">
      <feFlood
         flood-opacity="0.5"
         flood-color="rgb(0,0,0)"
         result="flood"
         id="feFlood3422-5" />
      <feComposite
         in="flood"
         in2="SourceGraphic"
         operator="in"
         result="composite1"
         id="feComposite3424-4" />
      <feGaussianBlur
         in="composite1"
         stdDeviation="2"
         result="blur"
         id="feGaussianBlur3426-7" />
      <feOffset
         dx="2"
         dy="2"
         result="offset"
         id="feOffset3428-1" />
      <feComposite
         in="SourceGraphic"
         in2="offset"
         operator="over"
         result="composite2"
         id="feComposite3430-1" />
    </filter>
    <filter
       style="color-interpolation-filters:sRGB;"
       inkscape:label="Drop Shadow"
       id="filter4619">
      <feFlood
         flood-opacity="0.498039"
         flood-color="rgb(0,0,0)"
         result="flood"
         id="feFlood4621" />
      <feComposite
         in="flood"
         in2="SourceGraphic"
         operator="in"
         result="composite1"
         id="feComposite4623" />
      <feGaussianBlur
         in="composite1"
         stdDeviation="25"
         result="blur"
         id="feGaussianBlur4625" />
      <feOffset
         dx="25"
         dy="25"
         result="offset"
         id="feOffset4627" />
      <feComposite
         in="SourceGraphic"
         in2="offset"
         operator="over"
         result="composite2"
         id="feComposite4629" />
    </filter>
    <filter
       style="color-interpolation-filters:sRGB"
       inkscape:label="Drop Shadow"
       id="filter3420-0">
      <feFlood
         flood-opacity="0.5"
         flood-color="rgb(0,0,0)"
         result="flood"
         id="feFlood3422-1" />
      <feComposite
         in="flood"
         in2="SourceGraphic"
         operator="in"
         result="composite1"
         id="feComposite3424-0" />
      <feGaussianBlur
         in="composite1"
         stdDeviation="2"
         result="blur"
         id="feGaussianBlur3426-72" />
      <feOffset
         dx="2"
         dy="2"
         result="offset"
         id="feOffset3428-2" />
      <feComposite
         in="SourceGraphic"
         in2="offset"
         operator="over"
         result="composite2"
         id="feComposite3430-11" />
    </filter>
  </defs>
  <sodipodi:namedview
     id="base"
     pagecolor="#ffffff"
     bordercolor="#666666"
     borderopacity="1.0"
     inkscape:pageopacity="0.0"
     inkscape:pageshadow="2"
     inkscape:zoom="2.765107"
     inkscape:cx="183.16282"
     inkscape:cy="804.37374"
     inkscape:document-units="px"
     inkscape:current-layer="layer1"
     showgrid="false"
     inkscape:window-width="1440"
     inkscape:window-height="781"
     inkscape:window-x="0"
     inkscape:window-y="0"
     inkscape:window-maximized="1" />
  <metadata
     id="metadata7">
    <rdf:RDF>
      <cc:Work
         rdf:about="">
        <dc:format>image/svg+xml</dc:format>
        <dc:type
           rdf:resource="http://purl.org/dc/dcmitype/StillImage" />
        <dc:title />
      </cc:Work>
    </rdf:RDF>
  </metadata>
  <g
     inkscape:label="Layer 1"
     inkscape:groupmode="layer"
     id="layer1">
    <text
       xml:space="preserve"
       style="font-style:normal;font-variant:normal;font-weight:normal;font-stretch:normal;font-size:40px;line-height:125%;font-family:STHeiti;-inkscape-font-specification:STHeiti;letter-spacing:0px;word-spacing:0px;fill:#ffffff;fill-opacity:1;stroke:none;stroke-width:1px;stroke-linecap:butt;stroke-linejoin:miter;stroke-opacity:1;filter:url(#filter3420)"
       x="114.28571"
       y="275.21936"
       id="text3336"
       sodipodi:linespacing="125%"><tspan
         sodipodi:role="line"
         id="tspan3338"
         x="114.28571"
         y="275.21936"
         style="font-style:normal;font-variant:normal;font-weight:normal;font-stretch:normal;font-family:STFangsong;-inkscape-font-specification:STFangsong;writing-mode:lr-tb;fill:#ffffff"><tspan
   style="font-style:normal;font-variant:normal;font-weight:normal;font-stretch:normal;font-family:'Nanum Myeongjo';-inkscape-font-specification:'Nanum Myeongjo';fill:#ffffff"
   id="tspan3340">Milo</tspan>的ex-<tspan
   style="font-style:italic"
   id="tspan4727"
   dx="-1.4465986">Hippocampus</tspan></tspan></text>
    <g
       id="g3475"
       transform="matrix(0.07343379,0,0,0.07343379,69.0725,223.79533)"
       style="color:#000000;clip-rule:nonzero;display:inline;overflow:visible;visibility:visible;opacity:1;isolation:auto;mix-blend-mode:normal;color-interpolation:sRGB;color-interpolation-filters:linearRGB;solid-color:#000000;solid-opacity:1;fill:#ffffff;fill-opacity:1;fill-rule:nonzero;stroke:none;stroke-width:12.43710136px;stroke-linecap:butt;stroke-linejoin:miter;stroke-miterlimit:4;stroke-dasharray:none;stroke-dashoffset:0;stroke-opacity:1;filter:url(#filter4619);color-rendering:auto;image-rendering:auto;shape-rendering:auto;text-rendering:auto;enable-background:accumulate">
      <path
         id="path3449"
         d="m 492.817,578.092 c -4.477,0.53 -8.563,1.015 -12.65,1.5 2.04,4.217 3.229,9.218 6.265,12.517 14.6,15.861 29.74,31.223 44.59,46.854 3.975,4.185 7.601,8.697 12.066,12.519 -4.272,-19.914 -16.743,-34.002 -32.096,-46.522 3.867,1.011 7.691,2.303 11.62,2.922 2.218,0.35 5.971,0.335 6.614,-0.839 1.046,-1.912 0.855,-5.256 -0.133,-7.38 -2.746,-5.902 -6.173,-11.487 -10.099,-18.587 13.925,8.94 23.769,19.652 30.503,33.156 10.969,21.99 13.138,45.354 10.71,69.484 -3.2,31.823 -13.278,61.541 -26.991,91.578 -0.994,-2.579 -1.404,-4.062 -2.12,-5.38 -0.668,-1.23 -1.66,-2.286 -3.29,-4.461 -14.566,31.92 -34.272,56.839 -73.643,60.511 8.426,-7.129 15.629,-12.792 22.337,-18.993 13.083,-12.09 19.407,-27.516 20.013,-45.066 0.128,-3.709 -2.981,-7.531 -4.601,-11.302 -3.145,2.394 -7.443,4.144 -9.199,7.308 -3.89,7.012 -7.258,14.509 -9.507,22.197 -12.131,41.457 -55.844,56.807 -86.019,47.987 3.238,-0.901 6.463,-1.854 9.717,-2.694 14.967,-3.86 30.163,-7.253 41.896,-18.39 3.425,-3.253 8.89,-6.602 5.517,-12.108 -3.365,-5.496 -9.381,-3.452 -14.021,-1.405 -4.4,1.94 -8.386,4.972 -12.274,7.896 -34.284,25.779 -84.228,25.021 -111.431,-17.625 -0.461,-0.724 -0.694,-1.593 -1.752,-4.091 13.588,10.396 26.615,18.329 42.179,19.67 9.172,0.791 18.508,-0.036 27.749,-0.549 2.264,-0.125 5.017,-1.354 6.504,-3.01 1.76,-1.962 3.237,-4.952 3.191,-7.466 -0.027,-1.459 -3.153,-3.839 -5.118,-4.108 -7.015,-0.963 -14.166,-0.903 -21.197,-1.774 -12.837,-1.59 -25.753,-2.959 -38.399,-5.564 -11.411,-2.354 -19.107,-10.17 -24.846,-20.245 -13.791,-24.213 -14.048,-49.544 -6.488,-75.45 2.838,-9.725 6.713,-19.148 9.893,-28.083 -1.099,15.699 -3.146,31.731 -3.089,47.758 0.061,16.891 6.391,32.078 17.844,44.791 1.587,1.761 3.631,3.598 5.798,4.207 2.074,0.583 5.372,0.399 6.674,-0.904 1.207,-1.209 0.821,-4.392 0.5,-6.613 -0.23,-1.587 -1.328,-3.162 -2.354,-4.502 -20.751,-27.104 -22.442,-57.165 -13.545,-88.721 2.696,-9.565 6.26,-18.888 9.428,-28.319 0.987,-0.461 1.974,-0.923 2.961,-1.384 0.681,1.575 1.246,3.215 2.062,4.717 6.982,12.851 18.838,15.78 32.208,16.162 15.976,0.459 31.077,3.927 43.916,14.302 13.407,10.832 22.903,24.234 26.172,41.313 2.938,15.341 -3.023,27.51 -15.559,36.251 -13.626,9.501 -28.231,9.465 -42.373,1.563 -16.437,-9.184 -23.528,-24.687 -19.349,-39.757 2.267,-8.174 8.139,-12.733 16.619,-12.904 9.56,-0.191 18.244,5.072 20.452,12.569 0.437,1.482 0.219,3.158 0.311,4.873 -4.825,-2.688 -8.888,-5.903 -13.502,-7.306 -7.621,-2.316 -12.76,2.142 -11.979,10.011 0.992,9.996 4.771,18.532 14.763,22.827 7.99,3.434 15.562,2.279 22.024,-3.296 8.043,-6.939 11.289,-15.766 8.603,-26.397 -6.307,-24.969 -40.788,-40.307 -59.748,-25.384 -24.623,19.381 -29.926,49.207 -4.685,72.188 24.487,22.297 54.372,29.645 86.863,23.638 31.985,-5.912 51.682,-29.633 55.277,-64.717 0.224,-2.185 0.382,-4.375 0.685,-7.898 16.283,15.784 25.163,34.31 29.837,55.384 5.733,-7.816 7.138,-33.452 3.233,-50.719 -3.879,-17.165 -12.188,-32.261 -22.578,-47.809 18.781,10.525 31.227,24.656 36.619,44.863 0.926,-0.472 1.854,-0.943 2.78,-1.416 -0.896,-5.072 -1.467,-10.229 -2.746,-15.204 -4.321,-16.804 -13.357,-31.183 -25.213,-43.41 -14.818,-15.284 -30.933,-29.308 -45.928,-44.429 -5.045,-5.087 -9.177,-11.505 -12.162,-18.03 -1.508,-3.295 -0.971,-9.509 1.29,-11.977 2.181,-2.38 8.147,-3.017 11.792,-2.017 12.525,3.438 21.966,11.819 30.609,20.689 z"
         inkscape:connector-curvature="0"
         style="color:#000000;clip-rule:nonzero;display:inline;overflow:visible;visibility:visible;isolation:auto;mix-blend-mode:normal;color-interpolation:sRGB;color-interpolation-filters:linearRGB;solid-color:#000000;solid-opacity:1;fill:#ffffff;fill-opacity:1;fill-rule:nonzero;stroke:none;stroke-width:12.43710136px;stroke-linecap:butt;stroke-linejoin:miter;stroke-miterlimit:4;stroke-dasharray:none;stroke-dashoffset:0;stroke-opacity:1;color-rendering:auto;image-rendering:auto;shape-rendering:auto;text-rendering:auto;enable-background:accumulate" />
      <path
         id="path3451"
         d="m 627.971,535.402 c -4.724,-9.588 -9.09,-19.373 -14.247,-28.723 -10.358,-18.783 -25.874,-31.343 -46.142,-38.829 -14.054,-5.19 -27.435,-12.208 -41.561,-18.61 1.815,40.784 26.802,66.438 60.386,86.594 -9.396,2.372 -26.862,-1.928 -37.823,-8.606 -20.365,-12.409 -31.487,-31.81 -39.902,-53.043 -5.585,-14.094 -10.23,-28.564 -15.155,-42.914 -5.407,-15.757 -16.77,-25.998 -29.925,-26.714 -18.288,-0.996 -32.791,13.6 -34.418,34.632 -1.204,15.56 2.358,30.176 8.717,44.248 0.901,1.995 1.654,4.059 2.438,6.105 0.049,0.125 -0.243,0.379 -0.769,1.143 -13.125,-8.069 -23.154,-19.142 -27.637,-33.655 -4.075,-13.192 -5.386,-27.224 -8.243,-40.817 -0.808,-3.847 -1.921,-8.151 -4.329,-11.056 -15.248,-18.399 -24.265,-38.479 -18.929,-62.977 0.143,-0.656 0.463,-1.272 1.153,-3.119 4.414,6.344 8.105,12.215 12.363,17.642 6.492,8.272 13.347,16.26 20.122,24.307 1.091,1.296 2.388,2.709 3.893,3.309 4.128,1.648 9.36,5.012 12.366,3.675 2.78,-1.237 4.415,-7.647 4.526,-11.834 0.475,-17.835 -1.536,-35.3 -11.732,-50.729 -5.207,-7.879 -14.958,-12.097 -23.712,-9.405 -30.197,9.287 -51.161,28.737 -63.493,59.051 32.085,7.458 52.691,25.474 56.184,61.708 -4.386,-3.91 -7.467,-6.653 -10.544,-9.401 -10.175,-9.085 -21.409,-16.428 -34.748,-19.856 -22.042,-5.663 -41.591,2.418 -53.678,21.834 -11.472,18.43 -15.577,38.997 -17.046,60.209 -0.591,8.532 -0.097,17.14 -1.793,25.954 -1.351,-8.179 -2.988,-16.322 -4.007,-24.542 -6.246,-50.389 10.812,-93.287 41.81,-132.071 18.988,-23.758 42.799,-40.498 69.959,-53.453 11.431,-5.453 22.256,-12.402 32.716,-19.603 10.195,-7.017 16.181,-17.532 20.023,-29.209 1.14,-3.462 2.156,-6.965 5.059,-10.647 1.283,7.464 3.549,14.917 3.634,22.396 0.147,12.961 -0.166,26.056 -1.849,38.888 -5.922,45.174 14.26,70.017 57.348,84.32 14.166,4.702 28.812,7.937 43.136,12.186 31.285,9.278 52.987,29.446 66.487,58.92 10.588,23.123 16.228,47.563 19.362,72.692 z M 570,444.096 c -8.295,-14.669 -24.99,-24.252 -34.113,-19.98 7.076,13.307 19.669,17.022 34.113,19.98 z"
         inkscape:connector-curvature="0"
         style="color:#000000;clip-rule:nonzero;display:inline;overflow:visible;visibility:visible;isolation:auto;mix-blend-mode:normal;color-interpolation:sRGB;color-interpolation-filters:linearRGB;solid-color:#000000;solid-opacity:1;fill:#ffffff;fill-opacity:1;fill-rule:nonzero;stroke:none;stroke-width:12.43710136px;stroke-linecap:butt;stroke-linejoin:miter;stroke-miterlimit:4;stroke-dasharray:none;stroke-dashoffset:0;stroke-opacity:1;color-rendering:auto;image-rendering:auto;shape-rendering:auto;text-rendering:auto;enable-background:accumulate" />
      <path
         id="path3453"
         d="m 374.549,252.086 c 3.608,1.818 8.709,5.592 9.749,4.689 3.38,-2.935 6.435,-7.311 7.442,-11.638 1.24,-5.325 0.296,-11.159 0.296,-16.737 1.067,-0.061 1.698,-0.3 1.977,-0.083 12.861,9.961 18.105,3.354 20.708,-8.662 0.722,-3.334 1,-6.767 1.432,-10.16 0.401,-3.147 0.736,-6.302 2.687,-9.88 1.711,6.014 3.695,11.966 5.077,18.056 2.854,12.572 3.923,25.18 -0.448,37.719 -4.357,12.497 -13.356,19.517 -25.977,22.377 -7.633,1.731 -15.827,2.269 -22.749,5.517 -7.73,3.628 -15.002,9.01 -21.116,15.011 -3.525,3.459 -5.932,4.352 -10.455,3.46 -15.058,-2.969 -30.197,-3.869 -45,1.384 -18.672,6.626 -30.856,20.366 -39.403,37.544 -4.46,8.966 -8.33,18.292 -11.621,27.749 -1.802,5.178 -4.485,7.14 -9.604,6.454 -4.366,-0.586 -8.872,-0.668 -13.072,-1.844 -9.425,-2.638 -18.521,-6.922 -28.086,-8.46 -9.15,-1.471 -18.723,-0.317 -29.556,-0.317 13.03,-10.317 25.056,-20.162 37.423,-29.558 20.634,-15.677 43.867,-27.929 61.794,-47.175 10.013,-10.75 20.441,-21.123 30.22,-32.078 9.609,-10.765 9.938,-26.889 1.566,-40.487 -7.477,-12.144 -20.736,-17.435 -34.885,-13.941 -0.926,0.229 -1.893,0.294 -2.808,0.431 -7.519,-25.046 19.7,-90.744 53.963,-127.985 -1.665,4.521 -3.645,8.955 -4.939,13.58 -6,21.417 -12.075,42.822 -17.506,64.386 -1.402,5.568 -1.294,11.782 -0.632,17.556 2.058,17.945 7.322,28.933 33.197,31.465 -1.88,5.319 -4.035,10.422 -5.447,15.723 -1.123,4.212 -1.954,8.697 -1.733,13.001 0.14,2.735 1.915,6.997 3.899,7.632 2.67,0.856 7.254,-0.125 9.218,-2.104 3.5,-3.528 6.149,-8.164 8.277,-12.744 6.43,-13.838 15.461,-24.951 30.08,-30.6 2.593,-1.002 5.423,-1.392 9.85,-2.486 -7.532,13.337 -10.628,25.951 -9.737,39.524 0.093,1.409 -2.239,3.217 -3.763,4.447 -4.91,3.963 -10.826,7.052 -14.678,11.829 -2.73,3.384 -3.894,9 -3.719,13.542 0.287,7.526 6.839,10.999 13.737,7.777 3.201,-1.495 6.015,-4.084 8.573,-6.613 2.403,-2.372 4.238,-5.32 5.769,-7.301 z"
         inkscape:connector-curvature="0"
         style="color:#000000;clip-rule:nonzero;display:inline;overflow:visible;visibility:visible;isolation:auto;mix-blend-mode:normal;color-interpolation:sRGB;color-interpolation-filters:linearRGB;solid-color:#000000;solid-opacity:1;fill:#ffffff;fill-opacity:1;fill-rule:nonzero;stroke:none;stroke-width:12.43710136px;stroke-linecap:butt;stroke-linejoin:miter;stroke-miterlimit:4;stroke-dasharray:none;stroke-dashoffset:0;stroke-opacity:1;color-rendering:auto;image-rendering:auto;shape-rendering:auto;text-rendering:auto;enable-background:accumulate" />
      <path
         id="path3455"
         d="m 512.566,562.845 c -12.904,-6.823 -25.48,-14.539 -38.93,-20.167 -7.604,-3.184 -16.65,-4.005 -25.037,-3.961 -10.09,0.053 -16.412,7.659 -16.841,17.801 -0.685,16.223 6.961,29.271 16.328,41.502 7.596,9.919 15.839,19.347 23.351,29.326 10.267,13.643 15.847,29.086 15.434,46.687 -2.403,-4.853 -4.848,-9.686 -7.202,-14.562 -10.57,-21.896 -26.539,-39.212 -45.529,-54.032 -14.84,-11.58 -28.074,-24.404 -34.288,-43.009 -5.903,-17.676 -1.037,-29.464 16.262,-36.615 5.6,-2.314 11.621,-3.607 18.703,-5.746 -12.829,-11.207 -26.175,-17.51 -42.941,-15.158 -16.095,2.259 -27.839,12.249 -40.521,23.106 -1.104,-13.512 2.951,-24.04 12.034,-31.212 8.631,-6.815 18.981,-11.453 28.418,-16.956 -16.619,-20.471 -51.925,-15.051 -64.484,11.055 -5.573,11.582 -8.151,24.012 -5.32,36.438 1.386,6.083 5.613,12.826 10.595,16.512 10.179,7.528 21.82,13.059 32.71,19.656 13.653,8.272 24.925,19.242 34.615,32.167 -8.123,-3.775 -16.144,-7.79 -24.39,-11.273 -15.789,-6.673 -31.604,-13.305 -47.589,-19.486 -39.263,-15.185 -47.621,-64.817 -22.043,-95.73 24.032,-29.044 66.009,-34.124 98.457,-2.96 4.391,4.218 8.659,8.771 12.021,13.811 8.418,12.619 22.243,18.139 33.846,26.476 23.098,16.59 45.14,34.198 62.341,56.33 z"
         inkscape:connector-curvature="0"
         style="color:#000000;clip-rule:nonzero;display:inline;overflow:visible;visibility:visible;isolation:auto;mix-blend-mode:normal;color-interpolation:sRGB;color-interpolation-filters:linearRGB;solid-color:#000000;solid-opacity:1;fill:#ffffff;fill-opacity:1;fill-rule:nonzero;stroke:none;stroke-width:12.43710136px;stroke-linecap:butt;stroke-linejoin:miter;stroke-miterlimit:4;stroke-dasharray:none;stroke-dashoffset:0;stroke-opacity:1;color-rendering:auto;image-rendering:auto;shape-rendering:auto;text-rendering:auto;enable-background:accumulate" />
      <path
         id="path3457"
         d="m 700.389,319.101 c -17.016,-1.308 -32.83,-3.207 -48.682,-3.591 -27.233,-0.661 -52.844,6.339 -77.107,18.578 -14.808,7.469 -29.722,14.723 -44.281,21.922 8.702,1.836 18.276,3.655 27.749,5.902 16.316,3.872 31.905,9.596 45.543,19.671 14.673,10.841 23.333,25.178 25.177,42.161 -13.798,-9.156 -27.363,-19.617 -42.231,-27.677 -21.119,-11.448 -44.997,-12.684 -68.421,-14.93 -5.364,-0.515 -10.745,-1.057 -16.048,-1.989 -28.664,-5.035 -46.96,-24.04 -49.195,-54.042 -1.208,-16.209 0.808,-32.708 1.985,-49.032 1.261,-17.488 2.414,-34.83 -6.653,-50.886 -2.021,-3.579 -4.331,-6.997 -6.597,-10.631 24.865,-0.091 43.737,14.259 44.805,34.971 0.8,15.517 -1.429,31.181 -2.075,46.789 -0.241,5.831 -0.547,11.813 0.433,17.51 2.966,17.239 15.541,25.542 32.25,20.111 17.425,-5.664 34.323,-12.967 51.392,-19.705 42.354,-16.719 84.448,-17.864 126.243,1.873 1.695,0.802 3.33,1.742 5.713,2.995 z"
         inkscape:connector-curvature="0"
         style="color:#000000;clip-rule:nonzero;display:inline;overflow:visible;visibility:visible;isolation:auto;mix-blend-mode:normal;color-interpolation:sRGB;color-interpolation-filters:linearRGB;solid-color:#000000;solid-opacity:1;fill:#ffffff;fill-opacity:1;fill-rule:nonzero;stroke:none;stroke-width:12.43710136px;stroke-linecap:butt;stroke-linejoin:miter;stroke-miterlimit:4;stroke-dasharray:none;stroke-dashoffset:0;stroke-opacity:1;color-rendering:auto;image-rendering:auto;shape-rendering:auto;text-rendering:auto;enable-background:accumulate" />
      <path
         id="path3459"
         d="m 391.957,187.146 c 9.489,-12.31 12.671,-26.88 15.435,-41.508 3.931,-20.81 19.446,-31.686 35.713,-41.513 30.438,-18.388 60.77,-15.113 90.381,2.344 17.174,10.125 31.111,24.049 43.424,40.032 -9.356,-5.505 -18.801,-10.872 -28.058,-16.541 -42.955,-26.304 -100.651,-8.383 -125.837,29.229 -7.852,11.726 -17.152,22.357 -31.058,27.957 z"
         inkscape:connector-curvature="0"
         style="color:#000000;clip-rule:nonzero;display:inline;overflow:visible;visibility:visible;isolation:auto;mix-blend-mode:normal;color-interpolation:sRGB;color-interpolation-filters:linearRGB;solid-color:#000000;solid-opacity:1;fill:#ffffff;fill-opacity:1;fill-rule:nonzero;stroke:none;stroke-width:12.43710136px;stroke-linecap:butt;stroke-linejoin:miter;stroke-miterlimit:4;stroke-dasharray:none;stroke-dashoffset:0;stroke-opacity:1;color-rendering:auto;image-rendering:auto;shape-rendering:auto;text-rendering:auto;enable-background:accumulate" />
      <path
         id="path3461"
         d="m 328.69,220.334 c 1.232,-4.618 2.255,-9.303 3.744,-13.836 2.429,-7.395 1.372,-13.671 -3.96,-19.693 -5.014,-5.664 -9.605,-11.816 -13.616,-18.234 -10.105,-16.168 -8.641,-30.268 4.29,-44.17 4.495,-4.833 9.408,-9.28 14.2,-13.831 19.417,-18.437 38.05,-37.418 45.173,-66.705 4.284,12.003 4.677,22.304 -0.171,31.138 -7.011,12.773 -14.932,25.346 -24.306,36.45 -12.896,15.276 -16.235,30.764 -8.948,49.579 8.966,23.147 -0.482,42.259 -16.406,59.302 z"
         inkscape:connector-curvature="0"
         style="color:#000000;clip-rule:nonzero;display:inline;overflow:visible;visibility:visible;isolation:auto;mix-blend-mode:normal;color-interpolation:sRGB;color-interpolation-filters:linearRGB;solid-color:#000000;solid-opacity:1;fill:#ffffff;fill-opacity:1;fill-rule:nonzero;stroke:none;stroke-width:12.43710136px;stroke-linecap:butt;stroke-linejoin:miter;stroke-miterlimit:4;stroke-dasharray:none;stroke-dashoffset:0;stroke-opacity:1;color-rendering:auto;image-rendering:auto;shape-rendering:auto;text-rendering:auto;enable-background:accumulate" />
      <path
         id="path3463"
         d="m 443.352,41.355 c 7.729,28.674 -0.723,51.509 -21.769,62.837 -20.892,11.245 -36.185,27.167 -43.211,50.404 -3.115,10.301 -7.238,20.254 -17.913,29.154 4.764,-15.816 0.046,-28.999 -2.026,-42.526 -2.493,-16.274 7.083,-27.571 18.729,-36.722 8.809,-6.92 18.681,-12.552 28.354,-18.293 15.931,-9.457 27.167,-22.9 34.96,-39.483 0.795,-1.693 1.762,-3.304 2.876,-5.371 z"
         inkscape:connector-curvature="0"
         style="color:#000000;clip-rule:nonzero;display:inline;overflow:visible;visibility:visible;isolation:auto;mix-blend-mode:normal;color-interpolation:sRGB;color-interpolation-filters:linearRGB;solid-color:#000000;solid-opacity:1;fill:#ffffff;fill-opacity:1;fill-rule:nonzero;stroke:none;stroke-width:12.43710136px;stroke-linecap:butt;stroke-linejoin:miter;stroke-miterlimit:4;stroke-dasharray:none;stroke-dashoffset:0;stroke-opacity:1;color-rendering:auto;image-rendering:auto;shape-rendering:auto;text-rendering:auto;enable-background:accumulate" />
      <path
         id="path3465"
         d="m 560.434,199.105 c -3.39,-4.042 -6.485,-8.383 -10.218,-12.079 -21.692,-21.479 -37.828,-23.936 -65.396,-10.564 -13.836,6.712 -27.512,14.264 -43.667,13.298 -5.983,-0.357 -11.933,-1.29 -17.904,-3.293 6.077,-1.973 12.939,-2.757 18.075,-6.152 12.555,-8.3 24.593,-17.458 36.309,-26.927 11.894,-9.615 24.684,-15.567 40.327,-14.152 13.129,1.188 22.945,7.775 30.356,18.27 8.45,11.967 12.894,25.37 14.259,39.796 -0.714,0.6 -1.428,1.201 -2.141,1.803 z"
         inkscape:connector-curvature="0"
         style="color:#000000;clip-rule:nonzero;display:inline;overflow:visible;visibility:visible;isolation:auto;mix-blend-mode:normal;color-interpolation:sRGB;color-interpolation-filters:linearRGB;solid-color:#000000;solid-opacity:1;fill:#ffffff;fill-opacity:1;fill-rule:nonzero;stroke:none;stroke-width:12.43710136px;stroke-linecap:butt;stroke-linejoin:miter;stroke-miterlimit:4;stroke-dasharray:none;stroke-dashoffset:0;stroke-opacity:1;color-rendering:auto;image-rendering:auto;shape-rendering:auto;text-rendering:auto;enable-background:accumulate" />
      <path
         id="path3467"
         d="m 540.188,267.345 c -15.566,-3.342 -29.383,-12.095 -34.937,-26.66 -8.733,-22.902 -26.185,-32.838 -47.029,-40.141 -2.225,-0.779 -4.302,-1.979 -8.054,-3.736 16.47,-4.354 31.363,-7.26 46.653,-3.593 9.975,2.394 15.253,10.229 18.964,19.035 3.32,7.883 5.652,16.192 9.143,23.99 4.652,10.391 10.002,20.47 15.26,31.105 z"
         inkscape:connector-curvature="0"
         style="color:#000000;clip-rule:nonzero;display:inline;overflow:visible;visibility:visible;isolation:auto;mix-blend-mode:normal;color-interpolation:sRGB;color-interpolation-filters:linearRGB;solid-color:#000000;solid-opacity:1;fill:#ffffff;fill-opacity:1;fill-rule:nonzero;stroke:none;stroke-width:12.43710136px;stroke-linecap:butt;stroke-linejoin:miter;stroke-miterlimit:4;stroke-dasharray:none;stroke-dashoffset:0;stroke-opacity:1;color-rendering:auto;image-rendering:auto;shape-rendering:auto;text-rendering:auto;enable-background:accumulate" />
    </g>
  </g>
</svg>
